<?xml version="1.0" encoding="UTF-8"?><svg id="b" xmlns="http://www.w3.org/2000/svg" viewBox="0 0 605.19 1005.35"><g id="c"><path d="M602.2,906.67h-16.74c4.76,0-10.48-100.65-12.23-106.85-12.75-45.22-31.41-91.54-68.04-122.67-8.21-6.97-16.66-13.63-25.25-20.11-29.83-22.48-61.34-42.75-90.34-66.34-31.25-25.42-60.06-56.17-84.31-88.25-.91-1.2-1.82-2.4-2.7-3.63,6.02,8.45-62.4,69.64-69.61,76.23-23.44,21.43-48.31,41.3-74.39,59.42-25.34,17.6-52.67,32.82-73.81,55.72-30.54,33.1-44.62,77.27-55.14,120.12-1.5,6.13-13.83,96.36-9.91,96.36H2.99c-1.65,0-2.99,1.34-2.99,2.99v92.69c0,1.65,1.34,2.99,2.99,2.99h599.21c1.65,0,2.99-1.34,2.99-2.99v-92.69c0-1.65-1.34-2.99-2.99-2.99Z" fill="#288f37" stroke-width="0"/><path d="M141.05,518.57v-132.2l15.73-30.29v-37.36h-17.53v-83.78l14.78-23.88v-29.44h-28.61v-52.32c0-10.78-6.77-19.95-16.28-23.59l-3.92-51.39L101.07,0l-4.17,54.34-3.87,50.77c-10.53,3.08-18.26,12.7-18.26,24.21v52.32h-27.37v29.44l14.55,23.49v84.17h-18.54v37.36l15.45,29.78v132.71h-31.12v39.33l20.9,33.71v116.6c6.48-10.71,13.98-20.92,22.74-30.41,17.59-19.06,38.53-32.87,58.76-46.23,5.98-3.95,12.17-8.03,18.04-12.11,1.72-1.19,3.42-2.39,5.13-3.59v-24.82l20.51-33.15v-39.33h-32.75ZM116.44,514.14c0,1.51-.22,3.03-.62,4.43h-31.46c-.39-1.4-.62-2.92-.62-4.43v-40.06c0-8.99,7.36-16.35,16.35-16.35s16.35,7.36,16.35,16.35v40.06ZM118.46,313.61c0,1.8-.28,3.48-.73,5.12h-35.28c-.45-1.63-.73-3.31-.73-5.12v-29.44c0-10.11,8.26-18.37,18.37-18.37s18.37,8.26,18.37,18.37v29.44Z" fill="#288f37" stroke-width="0"/><path d="M546.68,630.88v-82.74l9.86-18.96v-23.38h-10.98v-52.44l9.25-14.94v-18.43h-17.9v-32.74c0-6.75-4.24-12.48-10.19-14.77l-2.46-32.17-2.61-34.02-2.6,34.02-2.44,31.78c-6.59,1.93-11.43,7.94-11.43,15.16v32.74h-17.13v18.43l9.11,14.69v52.68h-11.61v23.38l9.67,18.64v83.06h-19.48v.38c5.09,3.68,10.16,7.41,15.18,11.2,9.75,7.33,18.28,14.13,26.09,20.77,15.18,12.89,27.38,27.9,37.33,43.78v-30.76l12.83-20.75v-24.61h-20.51ZM531.28,628.11c0,.95-.13,1.9-.39,2.78h-19.69c-.24-.88-.39-1.83-.39-2.78v-25.07c0-5.63,4.62-10.23,10.23-10.23s10.23,4.61,10.23,10.23v25.07ZM532.55,502.6c0,1.12-.17,2.18-.45,3.2h-22.09c-.28-1.02-.45-2.08-.45-3.2v-18.42c0-6.34,5.17-11.5,11.49-11.5s11.5,5.17,11.5,11.5v18.42Z" fill="#288f37" stroke-width="0"/></g></svg>